<svg width="128" height="128" viewBox="0 0 128 128" fill="none" xmlns="http://www.w3.org/2000/svg">
<path d="M64 0C28.654 0 0 28.654 0 64C0 99.3456 28.654 128 64 128C99.346 128 128 99.3456 128 64C128 28.654 99.346 0 64 0ZM64 119.065C33.5888 119.065 8.93524 94.4115 8.93524 64.0003C8.93524 33.5888 33.5888 8.93524 64 8.93524C94.4115 8.93524 119.065 33.5888 119.065 64.0003C119.065 94.4112 94.4115 119.065 64 119.065Z" fill="black"/>
<path d="M100.968 57.7922C100.082 55.8065 98.3443 53.1709 96.556 50.4372C94.7677 47.7031 92.5264 44.9124 93.5257 39.3096C94.5251 33.7068 98.8023 31.9881 99.41 30.9583C99.8964 30.1342 98.4492 29.3003 98.0883 29.1284C97.6508 28.9211 97.1748 28.7589 96.025 28.7087C95.9533 28.7053 95.8836 28.7046 95.8163 28.7077C94.8032 28.7438 94.2634 29.38 93.846 29.5197C93.3934 29.6715 91.4094 29.5512 91.1347 29.6085C90.8342 29.6715 90.3072 30.3064 90.1943 30.4682C89.997 30.7529 90.1491 30.824 89.8684 31.4119C89.5869 31.9995 87.5822 33.6713 87.0334 34.7138C86.7393 35.2723 87.0693 36.4268 86.7112 37.1933C86.3537 37.9598 85.2806 37.9226 85.0522 38.7625C84.884 39.381 85.2053 41.3673 84.9346 42.3365C84.6542 43.3409 84.0729 42.8883 84.0364 43.9124C83.9851 45.3557 86.5369 47.6569 86.9711 48.3209C87.406 48.9856 87.5802 49.3765 88.1172 50.5906C88.7162 51.9451 89.523 52.7894 90.1297 53.4778C90.7371 54.1659 92.4078 55.2206 92.8393 55.9583C93.0788 56.3687 92.8179 57.1523 92.9803 57.6659C93.1334 58.1516 93.572 58.5768 94.2618 59.5735C94.9516 60.5695 94.7204 63.1625 94.0966 64.7297C93.4728 66.2976 91.7729 68.3747 88.8646 69.1908C85.9567 70.0066 78.655 69.3389 75.7313 61.6673C74.3869 58.1386 75.004 54.0105 78.1461 50.7628C81.2876 47.5152 83.6313 42.5479 83.6387 37.3732C83.6387 26.3954 74.3212 17.496 63.1836 17.496C52.0463 17.496 43.0172 26.395 43.0172 37.3732C43.0216 42.641 45.1476 47.6924 49.0164 51.4694C52.8855 55.2464 53.7592 58.756 52.1732 61.9209C50.4569 65.3448 46.5004 67.1958 39.9977 67.25C34.3935 67.2973 32.8773 64.5136 31.7409 62.9142C29.5609 59.8472 30.6899 56.1261 32.7342 53.7368C35.2173 50.8345 37.0512 50.5839 39.0677 51.6697C40.1498 52.2527 41.7492 53.6105 41.7854 56.0856C41.8068 57.56 40.8095 59.8435 40.8095 60.1326C40.8095 60.4217 41.0446 60.6023 41.2976 60.4937C41.5508 60.3852 43.5811 59.3108 44.7302 57.8377C45.7583 56.5201 46.8619 51.7317 46.6455 51.1173C46.4284 50.5032 44.8662 49.2258 44.758 48.539C44.6936 48.1309 44.6457 47.6097 44.4534 47.1815C44.3224 46.8897 43.9633 46.621 43.7727 46.4746C43.303 46.1125 42.0745 46.5647 41.5686 45.9322C41.1351 45.3902 40.9545 44.2518 40.3763 44.1077C40.1136 44.0417 39.6088 43.9362 39.1468 44.03C38.4831 44.1653 37.9843 44.5657 37.468 44.5047C36.7464 44.4203 36.1309 43.2762 35.1554 43.3486C34.1852 43.4203 32.9516 45.0826 31.6149 46.5279C30.2779 47.9735 27.9046 49.799 26.2312 52.7425C25.0181 54.8768 24.0268 57.4039 24.533 60.9809C25.0389 64.5582 25.92 66.9686 28.7964 69.5982C31.7553 72.3031 34.144 73.085 35.9142 73.6995C37.6851 74.3132 38.9129 74.8864 40.8282 74.9461C41.4882 74.9665 42.8936 75.01 43.3603 74.9598C44.5402 74.8331 44.3 74.3139 45.3992 74.1326C49.6804 73.4284 52.7287 71.1935 54.5817 69.3064C55.0534 68.826 56.2899 67.5057 56.5208 67.2778C56.5784 67.6065 56.5961 68.6621 56.5586 68.9362C56.302 70.8156 55.1291 71.8679 53.2496 72.8703C50.5668 74.3008 46.6716 76.4037 44.0005 78.2731C41.5297 80.0035 39.3508 81.6846 38.5843 84.4438C37.8178 87.203 37.9715 88.7869 38.8144 90.6905C39.584 92.4269 40.9863 94.2802 43.3365 95.6344C45.2809 96.7543 46.9821 97.7396 48.8579 98.7024C50.1487 99.3651 52.4061 100.488 52.2021 102.839C51.995 105.222 50.4523 106.483 49.4047 106.94C47.6059 107.724 45.1412 107.929 45.0354 108.013C44.8494 108.161 47.1811 110.131 48.9701 110.12C50.924 110.107 51.6164 109.976 53.4282 109.341C55.0035 108.789 55.6896 107.412 55.9452 107.361C56.2008 107.31 56.5744 107.34 56.9161 107.093C57.2491 106.851 58.3081 106.032 58.4357 105.547C58.5637 105.061 58.5895 104.244 58.7171 103.81C58.8451 103.375 59.356 101.907 59.3815 101.115C59.4073 100.323 59.612 98.5088 58.9024 97.4676C58.3144 96.6049 58.6213 96.1516 58.1295 95.6856C58.0478 95.6079 57.635 95.0615 57.2571 94.9198C56.7683 94.7369 56.5131 94.8967 56.1626 94.7023C55.6031 94.3911 54.9344 92.2942 54.1267 92.2359C53.8319 92.2148 53.4895 92.2326 53.1914 92.3043C52.5274 92.4644 49.6197 92.5398 49.0981 92.3388C48.2901 92.0279 45.6555 90.3461 45.8789 87.9186C46.0719 85.8334 47.5567 84.4143 49.5705 83.6773C51.3689 83.019 51.9977 83.0769 53.2239 82.4893C54.4333 81.9101 55.2812 81.1737 56.2008 80.6889C57.1201 80.2031 58.366 79.6222 59.3108 78.8299C59.8498 78.3783 60.3899 77.8664 60.9004 77.2242C61.338 76.6754 62.1732 75.1869 63.0646 74.4482C64.2844 76.3133 65.4764 77.9552 66.3565 78.9763C68.5914 81.569 71.6448 83.1469 73.0756 84.0411C74.5061 84.9349 77.7886 87.3956 79.1947 89.3625C80.7026 91.4698 80.0118 94.3569 79.1816 95.4555C78.463 96.4069 76.8315 97.6404 74.5832 97.5892C72.1788 97.5346 69.8745 96.5476 68.4641 94.7271C67.0591 92.9127 66.5116 89.5069 67.7103 88.6084C68.9995 87.6419 70.2628 88.1025 71.0571 88.199C71.6796 88.275 72.2709 87.9434 72.3731 87.4325C72.4749 86.9216 72.3091 86.3078 71.6193 85.7715C71.2531 85.4867 70.5797 85.015 69.6507 85.0267C69.1415 85.0327 68.1817 85.2793 66.8798 85.2341C65.4975 85.1862 64.1364 85.3339 62.8864 86.4894C61.8582 87.4412 61.2683 88.192 60.8837 89.3839C60.7373 89.8369 60.9145 90.8118 60.8532 91.3917C60.7922 91.9777 60.5503 92.4363 60.546 92.8872C60.5386 93.5573 60.6485 94.3781 60.8009 95.1784C60.9708 96.0699 61.2948 97.0997 61.6961 98.0116C61.8599 98.3849 61.9923 98.8964 62.2033 99.1229C62.4593 99.3986 62.9491 99.6837 63.4131 100.137C64.2915 100.994 65.3099 102.1 66.113 102.417C67.1103 102.812 69.1278 102.123 69.6899 102.303C70.2518 102.481 70.9734 103.361 71.8418 103.336C72.7108 103.311 78.0346 103.06 79.8708 102.328C82.1656 101.412 86.1235 98.8901 86.9015 95.3797C87.8606 91.0513 86.0425 88.0901 84.2176 85.9239C81.9643 83.2494 77.7371 79.7944 74.5477 77.5059C72.7208 76.1953 72.0277 75.198 71.3215 74.0083C70.7844 73.1041 70.2159 71.5765 70.501 70.1751C71.8153 70.8632 73.6931 73.0063 74.2425 73.6911C74.95 74.5715 75.8522 75.1072 76.5498 75.4499C77.1669 75.7534 77.9381 75.5796 78.5257 75.6817C79.113 75.7833 78.6922 76.2647 79.7398 76.6228C80.7877 76.9803 85.4187 77.8366 86.5329 77.7974C86.9882 77.7813 87.5986 77.4282 88.3186 77.2027C89.0084 76.9863 90.1883 76.8895 93.4638 75.6097C97.956 73.8546 99.8435 70.9928 101.362 67.5706C102.881 64.1478 101.853 59.7778 100.968 57.7922ZM60.151 48.9122C54.6956 48.9122 50.273 44.49 50.273 39.0346C50.273 33.5788 54.6959 29.1562 60.151 29.1562C65.6061 29.1562 70.029 33.5785 70.029 39.0346C70.0293 44.49 65.6064 48.9122 60.151 48.9122Z" fill="black"/>
<path d="M58.8705 38.1859C60.1195 38.1859 61.1316 39.198 61.1316 40.4469C61.1316 41.6959 60.1195 42.708 58.8705 42.708C57.6216 42.708 56.6095 41.6959 56.6095 40.4469C56.6095 39.198 57.6216 38.1859 58.8705 38.1859Z" fill="black"/>
</svg>
